<svg width="185" height="41" viewBox="0 0 185 41" fill="none" xmlns="http://www.w3.org/2000/svg">
<g clip-path="url(#clip0_364_3089)">
<path d="M21.958 34.7805C21.7602 34.5541 21.5104 34.2367 21.3517 33.9817C21.1201 33.9869 20.8131 33.9947 20.5815 34.0051C20.108 33.7345 19.4757 33.3728 19.0073 33.0944C19.3378 33.4327 19.7853 33.8776 20.1444 34.1846C20.0949 34.2861 20.0377 34.424 20.0065 34.5307C20.4358 34.6686 21.0186 34.8325 21.4428 34.9913C21.9502 35.2124 22.6293 35.5012 23.1497 35.686C22.9571 35.5793 22.7047 35.4258 22.5278 35.2957C22.8166 35.3685 23.2043 35.4674 23.4905 35.5455C23.0274 35.3217 22.4107 35.0225 21.958 34.7805Z" fill="url(#paint0_radial_364_3089)"/>
<path d="M14.7714 31.8325C14.5346 31.45 14.2302 30.9296 14.0272 30.5263C13.8633 30.5965 13.6473 30.698 13.4912 30.7865C13.1087 30.456 12.6039 30.0137 12.2371 29.665C12.5701 30.1412 13.0229 30.7709 13.3845 31.2236C13.4652 31.4344 13.5901 31.7102 13.702 31.9079C13.9726 32.0823 14.3525 32.2852 14.6205 32.4648C15.0888 32.8342 15.7159 33.3208 16.2051 33.6617C15.9683 33.4093 15.6639 33.0632 15.4505 32.7926C15.7237 32.8551 16.088 32.9383 16.3638 32.9982C15.8798 32.6573 15.2371 32.1994 14.7714 31.8325Z" fill="url(#paint1_radial_364_3089)"/>
<path d="M10.2076 11.9925C10.1763 12.0653 10.1451 12.146 10.1139 12.2266C10.1685 12.1043 10.2232 11.9846 10.2752 11.8676C10.2544 11.9092 10.231 11.9534 10.2076 11.9925Z" fill="url(#paint2_radial_364_3089)"/>
<path d="M20.9666 35.379C20.5998 35.1968 20.1184 34.9392 19.7671 34.7259C19.637 34.7571 19.4627 34.8039 19.3352 34.843C18.8304 34.6556 18.1591 34.398 17.6595 34.1899C18.1383 34.4657 18.7862 34.8221 19.2832 35.0615C19.3768 35.1682 19.5069 35.3035 19.6084 35.3972C19.9961 35.4726 20.5165 35.5585 20.9042 35.6366C21.4974 35.7719 22.2884 35.941 22.8869 36.0347C22.6007 35.9644 22.2234 35.8603 21.9424 35.7693C22.2364 35.7953 22.6319 35.8343 22.9259 35.8629C22.3379 35.7302 21.5521 35.5455 20.9666 35.379Z" fill="url(#paint3_radial_364_3089)"/>
<path d="M17.1938 31.3719C17.5997 31.4864 18.1383 31.6399 18.5442 31.757C18.1383 31.3433 17.5997 30.7891 17.2068 30.3598C17.2094 29.9513 17.2329 29.4022 17.2797 28.9963C16.8894 29.0276 16.3664 29.0744 15.9761 29.116C15.5468 28.7179 14.9743 28.1871 14.5528 27.7812C14.7037 28.2938 14.9171 28.9755 15.107 29.4751C14.9223 29.6624 14.6855 29.9226 14.5216 30.1282C14.9483 30.3572 15.565 30.5783 15.9475 30.8802C16.3196 31.3173 16.8217 31.8949 17.2198 32.3034C17.1912 32.0224 17.1782 31.6503 17.1938 31.3719Z" fill="url(#paint4_radial_364_3089)"/>
<path d="M10.4781 26.1368C10.4001 25.6138 10.3116 24.9138 10.2778 24.3856C10.106 24.4793 9.88226 24.6172 9.72614 24.7369C9.52059 24.3076 9.25779 23.7299 9.08606 23.285C9.22136 23.8965 9.41391 24.7109 9.58824 25.3119C9.63247 25.5383 9.69492 25.8375 9.77038 26.0535L9.78339 26.0847L9.90568 26.3866C10.0072 26.5817 10.1529 26.8367 10.2674 27.0266C10.551 27.5704 10.9361 28.2886 11.2535 28.8142C11.0948 28.4265 10.8996 27.9009 10.7799 27.5002C10.9933 27.5913 11.2795 27.7057 11.4981 27.7838C11.1806 27.2972 10.7643 26.6441 10.4781 26.1368Z" fill="url(#paint5_radial_364_3089)"/>
<path d="M10.91 10.6212L10.5873 11.2067C10.4911 11.4096 10.3844 11.6334 10.2777 11.8676C10.5405 11.3862 10.8788 10.7982 11.1572 10.3558C11.0765 10.4313 10.9698 10.5328 10.91 10.6212Z" fill="url(#paint6_radial_364_3089)"/>
<path d="M10.1138 12.2266C9.92126 12.6586 9.73392 13.1009 9.583 13.4782C9.5778 13.5432 9.56999 13.6343 9.59081 13.6993C9.73912 13.257 9.93167 12.695 10.1138 12.2266Z" fill="url(#paint7_radial_364_3089)"/>
<path d="M9.20569 17.0871C9.05998 17.186 8.87004 17.3291 8.74514 17.4566C8.77377 16.9986 8.82581 16.3872 8.89606 15.9344L8.75295 16.7254C8.65668 17.5503 8.56821 18.6587 8.53699 19.4887C8.56561 20.2277 8.62285 21.2112 8.69831 21.945C8.66709 21.5495 8.63326 21.0187 8.63586 20.6232C8.74254 20.7429 8.89866 20.886 9.02616 20.9823C8.94029 20.402 8.83361 19.624 8.78678 19.0386C8.89606 18.4505 9.05478 17.6674 9.20569 17.0871Z" fill="url(#paint8_radial_364_3089)"/>
<path d="M13.3558 25.4004C13.8112 25.5383 14.42 25.723 14.878 25.8609C14.584 25.3223 14.1937 24.6042 13.9153 24.0552C14.113 23.5348 14.3888 22.8453 14.623 22.3379C14.139 22.3873 13.4937 22.4602 13.0124 22.5226C12.6923 22.0517 12.2682 21.422 11.9664 20.938C11.9221 21.5547 11.8701 22.3769 11.8623 22.9962C11.5761 23.2408 11.204 23.579 10.9386 23.847C11.2925 24.1332 11.8675 24.4116 12.1355 24.7863C12.3307 25.3666 12.5961 26.1368 12.8224 26.704C12.9629 26.3059 13.1737 25.7829 13.3558 25.4004Z" fill="url(#paint9_radial_364_3089)"/>
<path d="M40.6609 22.239C40.4085 22.6917 40.0624 23.2902 39.7866 23.7273C39.4484 23.6181 38.9956 23.4827 38.6522 23.3917C38.7484 23.9225 39.0295 24.6432 38.915 25.1714C38.6105 25.6918 38.1994 26.3787 37.8716 26.8835C38.2202 26.7899 38.6834 26.665 39.0321 26.5661C39.0503 26.9694 39.0503 27.508 39.0191 27.9087C39.2975 27.3597 39.6617 26.6233 39.9089 26.0587C40.1587 25.8167 40.484 25.4863 40.7129 25.2235C40.6505 24.9399 40.5386 24.5678 40.4293 24.3024C40.5126 23.6857 40.6167 22.8609 40.6609 22.239Z" fill="url(#paint10_radial_364_3089)"/>
<path d="M36.2349 30.0241C35.9461 29.9461 35.561 29.8498 35.2696 29.7847C35.1811 30.1984 35.1473 30.8021 34.9157 31.1508C34.4578 31.5385 33.8463 32.051 33.3754 32.4179C33.7292 32.3399 34.2002 32.2384 34.5541 32.1603C34.437 32.4439 34.2652 32.8134 34.1169 33.0788C34.5749 32.6989 35.1837 32.189 35.6209 31.7804C35.9799 31.5983 36.4587 31.3511 36.8126 31.156C36.8048 30.9452 36.7683 30.6642 36.7215 30.4586C37.0077 29.9773 37.3824 29.3268 37.6348 28.8246C37.2159 29.1889 36.6617 29.6728 36.2349 30.0241Z" fill="url(#paint11_radial_364_3089)"/>
<path d="M41.4103 16.9935C41.262 16.3534 41.0539 15.5025 40.8665 14.8755C40.8405 15.3282 40.7963 15.9345 40.7312 16.382C40.4086 16.2623 39.9714 16.1166 39.641 16.0203C39.9168 16.5954 40.4346 17.3265 40.5074 17.964C40.4164 18.552 40.2915 19.3378 40.1666 19.9181C40.4476 19.814 40.8223 19.6683 41.1007 19.5486C41.249 20.0169 41.4233 20.6466 41.5196 21.128C41.5612 20.4749 41.6107 19.6058 41.6133 18.9527C41.7017 18.6665 41.8032 18.2788 41.8475 17.9822C41.7356 17.6778 41.5612 17.2771 41.4103 16.9935Z" fill="url(#paint12_radial_364_3089)"/>
<path d="M23.9798 34.4058C24.024 34.1508 24.0994 33.8152 24.1801 33.5732C23.9121 33.5368 23.5504 33.4899 23.2824 33.4587C22.9806 33.1205 22.5773 32.6703 22.2703 32.3373C22.3353 32.7041 22.4342 33.1933 22.5409 33.5472C22.3561 33.6304 22.1115 33.7475 21.932 33.8438C22.2885 34.0416 22.7907 34.2575 23.1107 34.5099C23.3761 34.7909 23.7352 35.1656 24.0266 35.418C23.9824 35.2879 23.9459 35.1032 23.9407 34.9653C24.1437 35.0745 24.4091 35.2255 24.6042 35.3477C24.4143 35.0693 24.1619 34.692 23.9798 34.4058Z" fill="url(#paint13_radial_364_3089)"/>
<path d="M33.391 28.8038C33.4613 28.2886 33.5446 27.6017 33.581 27.0813C33.1725 27.5132 32.6287 28.0908 32.2176 28.5202C31.757 28.5124 31.1455 28.5071 30.6876 28.5097C30.8385 28.9079 31.0285 29.4413 31.1455 29.8524C30.8281 30.2999 30.4066 30.8984 30.0787 31.3381C30.5055 31.1872 31.0779 30.992 31.5072 30.8515C31.6295 31.1221 31.7778 31.489 31.8663 31.7726C32.1707 31.3277 32.5688 30.7292 32.8446 30.2661C33.3104 30.0111 33.9297 29.6702 34.3954 29.4152C34.0988 29.2201 33.6981 28.9755 33.391 28.8038Z" fill="url(#paint14_radial_364_3089)"/>
<path d="M39.2142 11.0089C39.3651 11.5033 39.5577 12.1668 39.6722 12.669C39.8309 12.5935 40.0365 12.4842 40.1822 12.388C40.4372 12.8121 40.7624 13.3923 40.9784 13.8399C40.765 13.257 40.4736 12.4816 40.2238 11.9144L40.0573 11.4929L39.9376 11.2613L39.667 10.7643C39.5733 10.6238 39.4562 10.4313 39.3521 10.2986C39.0087 9.7886 38.5429 9.11208 38.1734 8.62291C38.3634 8.95857 38.6054 9.41131 38.7589 9.76518C38.5091 9.65069 38.1708 9.51279 37.9106 9.41912C38.3139 9.88747 38.9306 10.4547 39.2142 11.0089Z" fill="url(#paint15_radial_364_3089)"/>
<path d="M30.1074 34.3642C29.8342 34.5984 29.4777 34.9392 29.1577 35.1005C28.6087 35.2931 27.8775 35.5481 27.3207 35.712C27.6251 35.6626 28.0336 35.6001 28.3407 35.5559C28.0961 35.6652 27.7656 35.7979 27.5132 35.8837C28.0961 35.7406 28.8741 35.5403 29.4465 35.3555C29.8706 35.2593 30.4352 35.1318 30.8594 35.0303C30.9062 34.9288 30.9556 34.7857 30.9816 34.6764C31.4266 34.398 32.0172 34.0155 32.4388 33.7007C31.9314 33.9349 31.2523 34.2419 30.7397 34.4579C30.5471 34.4266 30.2973 34.3902 30.1074 34.3642Z" fill="url(#paint16_radial_364_3089)"/>
<path d="M26.9304 35.5455C27.3519 35.3165 27.9139 35.0043 28.3146 34.7389C28.7231 34.5697 29.2695 34.346 29.678 34.1821C29.5714 34.0754 29.423 33.9427 29.3086 33.849C29.5531 33.5107 29.8706 33.0528 30.0761 32.6885C29.6702 32.9956 29.129 33.4041 28.7205 33.7059C28.4655 33.7137 28.1273 33.7293 27.8723 33.7423C27.815 33.9973 27.7786 34.3668 27.6199 34.5723C27.2764 34.8377 26.8185 35.1864 26.4646 35.4336C26.717 35.3347 27.0578 35.2072 27.3154 35.1162C27.214 35.2567 27.0605 35.431 26.9304 35.5455Z" fill="url(#paint17_radial_364_3089)"/>
<path d="M26.501 33.4119C26.4776 33.0476 26.436 32.561 26.3813 32.1994C26.1862 32.5506 25.9312 33.019 25.7517 33.378C25.4993 33.4275 25.1636 33.4951 24.9138 33.5498C25.0803 33.7866 25.3874 34.0728 25.4342 34.359C25.3848 34.6504 25.3171 35.0355 25.2755 35.3269C25.4004 35.1942 25.5799 35.0251 25.7178 34.9054C25.7751 35.0355 25.8375 35.215 25.8635 35.3529C26.0092 35.0719 26.1966 34.692 26.3137 34.398C26.5791 34.169 26.9381 33.8698 27.214 33.6539C27.0032 33.5784 26.717 33.4821 26.501 33.4119Z" fill="url(#paint18_radial_364_3089)"/>
<path d="M26.7248 30.2166C27.0318 30.4508 27.4377 30.7735 27.7318 31.0259C27.7968 30.5471 27.8775 29.907 27.9217 29.4256C28.3406 29.0926 28.9027 28.6529 29.3294 28.3302C28.8662 28.2053 28.2496 28.0466 27.7838 27.9347C27.6251 27.4247 27.4065 26.7456 27.2244 26.2434C26.9408 26.7274 26.5635 27.3753 26.2903 27.8645C25.7829 27.9321 25.1064 28.031 24.599 28.1091C24.9529 28.4655 25.4186 28.9495 25.7595 29.3242C25.6658 29.8029 25.5435 30.4404 25.455 30.9192C25.8349 30.7032 26.3423 30.4196 26.7248 30.2166Z" fill="url(#paint19_radial_364_3089)"/>
<path d="M12.2422 15.1018C12.1043 14.6413 11.9247 14.0272 11.8155 13.5588C11.5657 14.1677 11.2378 14.9821 11.0193 15.6066C10.6784 15.8642 10.2335 16.2233 9.91602 16.5095C10.1242 16.8243 10.5249 17.173 10.6394 17.5347C10.6133 18.1877 10.5847 19.0568 10.5951 19.7099C10.8813 19.252 11.282 18.6509 11.5995 18.2138C12.0236 18.3673 12.5934 18.5676 13.0202 18.7133C12.8901 18.1175 12.7235 17.3213 12.6221 16.7202C12.9811 16.1634 13.4755 15.4271 13.8632 14.891C13.3766 14.9483 12.7261 15.0316 12.2422 15.1018Z" fill="url(#paint20_radial_364_3089)"/>
<path d="M25.6711 17.1808C26.3085 16.8972 27.1594 16.5225 27.7995 16.2493C28.4135 16.5797 29.2305 17.0299 29.8394 17.3759C29.7405 16.7359 29.6078 15.885 29.4985 15.2475C29.9877 14.852 30.6408 14.329 31.13 13.9361C30.4483 13.78 29.535 13.5823 28.8507 13.4418C28.5306 12.8928 28.1013 12.1642 27.7708 11.623C27.4638 12.1382 27.0553 12.8277 26.7509 13.3429C26.0327 13.4184 25.0726 13.5276 24.3571 13.6187C24.8827 14.0532 25.5774 14.6387 26.0926 15.0862C25.9651 15.7159 25.7959 16.5537 25.6711 17.1808Z" fill="url(#paint21_radial_364_3089)"/>
<path d="M31.4838 4.46498C31.6451 4.759 31.8585 5.1545 31.9912 5.46413C32.2592 5.38867 32.6182 5.2872 32.8888 5.20914C33.365 5.45893 33.9973 5.79979 34.4656 6.06519C34.1144 5.70612 33.6408 5.23256 33.2687 4.8969C33.2687 4.7668 33.2505 4.58987 33.2063 4.46758C32.8654 4.32967 32.4049 4.15274 32.0588 4.03045C31.6347 3.79367 31.0649 3.48143 30.6303 3.26807C30.7786 3.41378 30.9686 3.61934 31.0831 3.79367C30.7578 3.75724 30.3233 3.71561 29.998 3.68699C30.4456 3.91596 31.1247 4.1059 31.4838 4.46498Z" fill="url(#paint22_radial_364_3089)"/>
<path d="M25.671 10.0254C26.2669 9.79902 27.0631 9.49979 27.6641 9.28122C28.2756 9.55443 29.09 9.92651 29.6963 10.2127C29.535 9.70535 29.319 9.02883 29.1473 8.52405C29.5323 8.24564 30.0475 7.87096 30.4326 7.58734C29.8238 7.46505 29.012 7.31153 28.4005 7.20225C28.0857 6.81976 27.6641 6.31238 27.3441 5.93509C27.1125 6.29156 26.8029 6.76512 26.5687 7.11639C25.939 7.16843 25.1012 7.24649 24.4741 7.30893C24.9425 7.62637 25.5669 8.0531 26.0301 8.37834C25.9234 8.87272 25.7777 9.53101 25.671 10.0254Z" fill="url(#paint23_radial_364_3089)"/>
<path d="M36.5576 6.96026C36.5732 6.93424 36.5966 6.89781 36.6122 6.86919C36.6044 6.84838 36.594 6.81975 36.5836 6.79634L36.7996 7.00449L36.581 6.79113C35.4517 5.78417 35.3321 5.67749 34.3355 4.98276C34.2236 4.92292 34.0753 4.84226 33.9608 4.79022C34.411 5.09205 35.025 5.47714 35.4413 5.8284C35.7874 6.15885 36.2401 6.60379 36.5576 6.96026Z" fill="url(#paint24_radial_364_3089)"/>
<path d="M36.732 14.6673C36.451 14.0662 36.0711 13.27 35.7666 12.682C35.5689 13.1607 35.2983 13.7956 35.0823 14.2666C34.4787 14.238 33.6747 14.2093 33.0736 14.1937C33.5316 14.7037 34.1326 15.3906 34.5697 15.9162C34.4448 16.5251 34.2757 17.3369 34.1326 17.9406C34.6686 17.7532 35.3842 17.506 35.9228 17.3213C36.3755 17.735 36.9688 18.297 37.4033 18.7342C37.3669 18.0837 37.3122 17.2146 37.2472 16.5641C37.5932 16.2441 38.0512 15.8148 38.3894 15.4843C37.8925 15.2293 37.2316 14.8989 36.732 14.6673Z" fill="url(#paint25_radial_364_3089)"/>
<path d="M34.5229 24.6276C34.8351 24.9945 35.241 25.4941 35.5272 25.8818C35.6755 25.2963 35.8681 24.5131 35.9904 23.9199C36.4405 23.6155 37.0364 23.207 37.4839 22.8947C37.052 22.6501 36.4717 22.3379 36.0294 22.1167C35.9201 21.5027 35.764 20.683 35.6261 20.0768C35.2852 20.579 34.8299 21.2477 34.4786 21.742C33.8958 21.7212 33.1152 21.7004 32.5323 21.6926C32.8602 22.1792 33.2895 22.8349 33.594 23.3397C33.3494 23.9043 33.0189 24.6537 32.7613 25.2131C33.2869 25.0309 33.9921 24.7968 34.5229 24.6276Z" fill="url(#paint26_radial_364_3089)"/>
<path d="M35.2749 8.26905C34.8872 7.82412 34.3642 7.23607 33.9583 6.80935C33.9349 7.1424 33.8907 7.58994 33.836 7.92039C33.3286 7.88136 32.6495 7.83973 32.1395 7.81371C32.6365 8.204 33.2974 8.7322 33.784 9.13551C33.81 9.62208 33.8386 10.2726 33.8412 10.7591C34.2809 10.6186 34.8664 10.4313 35.3061 10.2908C35.8213 10.6525 36.5004 11.1442 37 11.5267C36.7788 10.9829 36.477 10.2622 36.2298 9.73136C36.412 9.50499 36.6487 9.19536 36.8101 8.95077C36.3521 8.73481 35.7381 8.4616 35.2749 8.26905Z" fill="url(#paint27_radial_364_3089)"/>
<path d="M25.5904 4.88908C26.0405 4.75378 26.639 4.57425 27.0917 4.44415C27.5887 4.61848 28.2496 4.85266 28.744 5.0374C28.5566 4.73036 28.3042 4.31925 28.1039 4.02003C28.3198 3.87692 28.6113 3.68437 28.822 3.53606C28.3953 3.46321 27.8255 3.37214 27.3987 3.30969C27.149 3.13276 26.8133 2.89858 26.5557 2.73205C26.4386 2.89077 26.2799 3.09893 26.1576 3.25245C25.7283 3.27586 25.1585 3.31229 24.7291 3.34612C25.0596 3.51524 25.5019 3.74162 25.8324 3.91595C25.7595 4.20737 25.6658 4.59766 25.5904 4.88908Z" fill="url(#paint28_radial_364_3089)"/>
<path d="M16.0151 6.04697C16.2545 5.72432 16.5823 5.2976 16.8503 4.99837C17.3083 4.72257 17.9223 4.36349 18.3907 4.1085C18.1461 4.15794 17.8209 4.22819 17.5789 4.28804C17.8235 4.1033 18.1591 3.86652 18.4219 3.713C17.9458 3.96279 17.3161 4.30625 16.8555 4.58466C16.5953 4.72777 16.2545 4.92812 16.0047 5.08684C15.8538 5.21434 15.6638 5.40168 15.5259 5.54219C15.1148 5.91167 14.5684 6.40604 14.1781 6.80154C14.5762 6.50491 15.1122 6.11982 15.5233 5.84401C15.6716 5.91167 15.8668 5.99233 16.0151 6.04697Z" fill="url(#paint29_radial_364_3089)"/>
<path d="M17.7948 8.91954C17.5763 9.43733 17.2926 10.1295 17.0949 10.6551C17.709 10.322 18.5338 9.88487 19.1556 9.57003C19.7281 9.74697 20.4905 9.99155 21.0603 10.1789C21.0004 9.69233 20.9224 9.04183 20.8729 8.55266C21.3803 8.19619 22.0594 7.72264 22.5746 7.37657C21.9606 7.35316 21.1383 7.32974 20.5243 7.32193C20.3578 6.98368 20.1392 6.53093 19.9883 6.18747C19.6006 6.58818 19.088 7.12678 18.7107 7.5405C18.1227 7.69401 17.3395 7.90737 16.754 8.0791C17.0611 8.3341 17.4774 8.67235 17.7948 8.91954Z" fill="url(#paint30_radial_364_3089)"/>
<path d="M18.0758 25.1168C18.5234 24.7603 19.1296 24.2946 19.5928 23.9589C20.1834 24.1749 20.9666 24.4689 21.552 24.6979C21.3647 24.1176 21.1175 23.3423 20.9328 22.762C21.3621 22.2937 21.9423 21.677 22.3847 21.2243C21.7082 21.1774 20.8053 21.1228 20.1288 21.0916C19.7697 20.5634 19.2909 19.8582 18.9345 19.3274C18.6977 19.9233 18.3881 20.7221 18.1721 21.3257C17.5814 21.5079 16.7956 21.7629 16.2102 21.9684C16.7202 22.3171 17.4019 22.7802 17.9145 23.1263C17.9561 23.7221 18.0134 24.521 18.0758 25.1168Z" fill="url(#paint31_radial_364_3089)"/>
<path d="M11.8987 10.616C11.649 11.165 11.3211 11.904 11.1025 12.466C11.485 12.0549 12.0054 11.5163 12.4087 11.1286C12.7184 11.2457 13.1321 11.394 13.4443 11.5033C13.5146 11.0115 13.6108 10.3558 13.7123 9.86924C14.1651 9.4269 14.7791 8.84666 15.2501 8.42514C14.8494 8.48499 14.316 8.57346 13.9179 8.64891C13.9725 8.31066 14.0558 7.86052 14.152 7.53267C13.7539 7.99062 13.2283 8.60728 12.8511 9.08604C12.5232 9.30461 12.0913 9.60644 11.7764 9.84842C11.7973 10.08 11.917 10.3818 11.8987 10.616Z" fill="url(#paint32_radial_364_3089)"/>
<path d="M28.619 20.9667C28.3562 20.3838 27.9997 19.6084 27.7239 19.0308C27.3986 19.5824 26.9667 20.3214 26.6441 20.8756C25.9702 20.9536 25.0725 21.0655 24.3986 21.1592C24.8799 21.5859 25.5174 22.1584 25.9884 22.5981C25.8687 23.1887 25.7074 23.9771 25.5929 24.5678C26.1497 24.2998 26.8938 23.9511 27.4559 23.6961C27.9607 24.0006 28.6294 24.4117 29.1237 24.7317C29.1055 24.1333 29.0769 23.3371 29.0457 22.7386C29.5453 22.3509 30.214 21.8357 30.7187 21.4532C30.0917 21.2971 29.2512 21.102 28.619 20.9667Z" fill="url(#paint33_radial_364_3089)"/>
<path d="M20.6413 4.6627C21.0446 4.76418 21.578 4.90209 21.9787 5.00877C21.9996 4.71735 22.0282 4.32705 22.0698 4.03823C22.4731 3.84048 23.0143 3.57768 23.4228 3.38774C23.0143 3.38254 22.4679 3.38254 22.0568 3.38774C22.0334 3.23943 22.0074 3.03647 22.0178 2.88556C21.6561 3.0729 21.1773 3.3305 20.8261 3.53605C20.4045 3.62972 19.8425 3.76242 19.421 3.8691C19.5329 4.00961 19.6942 4.18654 19.8243 4.30884C19.5329 4.62628 19.1452 5.0504 18.8694 5.38345C19.4028 5.15968 20.1079 4.87086 20.6413 4.6627Z" fill="url(#paint34_radial_364_3089)"/>
<path d="M21.3621 28.0284C21.0031 27.5627 20.5217 26.9434 20.1574 26.4802C20.0638 26.9954 19.9441 27.6849 19.8816 28.2053C19.4549 28.351 18.8903 28.5514 18.4688 28.7153C18.9397 29.0093 19.6943 29.2539 20.0403 29.6989C20.2017 30.175 20.4176 30.8099 20.605 31.2757C20.8365 31.0025 21.1566 30.6486 21.409 30.3962C21.8435 30.5731 22.4185 30.8151 22.8479 31.0051C22.6449 30.5367 22.3769 29.9122 22.1766 29.4413C22.442 29.0484 22.8062 28.5332 23.0924 28.1585C22.5747 28.1143 21.8825 28.0622 21.3621 28.0284Z" fill="url(#paint35_radial_364_3089)"/>
<path d="M19.8165 13.5771C19.5303 13.0827 19.1504 12.4244 18.872 11.9274C18.5259 12.4946 18.068 13.2518 17.7376 13.8294C17.0871 14.0194 16.2206 14.2822 15.5753 14.4929C16.0281 14.852 16.6317 15.3282 17.0897 15.682C16.996 16.3273 16.8737 17.186 16.7982 17.8339C17.3837 17.441 18.1695 16.9284 18.7679 16.5563C19.4106 16.7879 20.2641 17.1001 20.9041 17.3395C20.7662 16.7228 20.5841 15.898 20.454 15.2761C20.9718 14.7948 21.6665 14.1599 22.1973 13.6941C21.4792 13.6499 20.5295 13.6031 19.8165 13.5771Z" fill="url(#paint36_radial_364_3089)"/>
<path d="M29.1759 36.4822C30.0267 37.8066 31.6582 38.7407 33.2064 38.8864C35.8552 39.1336 38.9125 40.6089 38.9125 40.6089C38.9125 40.6089 38.0981 34.7025 35.0407 34.9497C37.4866 34.7025 39.1154 35.9332 40.5413 36.1804C41.9672 36.4276 44.2101 36.1804 44.8189 37.4111C45.0219 34.9497 44.616 32.2436 40.1328 31.5046C43.1901 31.2575 45.2275 30.0293 46.2448 29.0432C47.2648 28.0596 49.0966 28.0596 49.0966 28.0596C49.0966 28.0596 46.0393 24.8592 43.3905 25.5982C46.8537 24.6146 48.0766 20.9224 50.114 20.9224C47.8737 19.4471 46.4452 18.2164 44.2049 20.4307C47.0566 17.4774 47.4651 12.0627 45.8337 8.86491C43.3879 10.5874 42.982 13.0489 42.982 13.0489C42.982 13.0489 40.1354 -0.241983 33.8178 0.00260237C34.6322 2.95584 35.0407 4.67834 35.0407 4.67834C35.0512 4.72257 35.3087 4.83186 35.3478 4.85528C40.5179 7.923 43.3644 13.6707 43.1094 19.6188C43.0912 20.0378 43.06 20.4567 43.0132 20.873C42.8987 21.906 42.7035 22.9312 42.4355 23.9355C42.0322 25.4369 41.4572 26.8992 40.6792 28.247C38.7902 31.5229 36.0165 34.4969 32.3737 35.7719C31.5151 36.0711 30.6174 36.3157 29.7223 36.4692C29.535 36.5004 29.3554 36.4978 29.1759 36.4822Z" fill="url(#paint37_linear_364_3089)"/>
<path d="M20.9433 36.4819C20.0924 37.8063 18.461 38.7404 16.9128 38.8861C14.264 39.1333 11.2067 40.6086 11.2067 40.6086C11.2067 40.6086 12.0211 34.7021 15.0784 34.9493C12.6326 34.7021 11.0037 35.9329 9.57785 36.18C8.15197 36.4272 5.90907 36.18 5.30021 37.4108C5.09726 34.9493 5.50317 32.2433 9.98636 31.5043C6.92904 31.2571 4.8917 30.029 3.87433 29.0428C2.85436 28.0593 1.02257 28.0593 1.02257 28.0593C1.02257 28.0593 4.07989 24.8589 6.72869 25.5978C3.26027 24.6117 2.03734 20.9221 0 20.9221C2.2403 19.4468 3.66878 18.216 5.90907 20.4303C3.05731 17.4771 2.6488 12.0624 4.28024 8.86457C6.72609 10.5871 7.132 13.0485 7.132 13.0485C7.132 13.0485 9.98376 -0.242318 16.3013 0.00226668C15.4869 2.9555 15.0784 4.67801 15.0784 4.67801C15.068 4.72224 14.8104 4.83152 14.7714 4.85494C9.60127 7.92266 6.75471 13.6704 7.00971 19.6185C7.02792 20.0374 7.05914 20.4563 7.10598 20.8727C7.22046 21.9056 7.41561 22.9308 7.68362 23.9352C8.08692 25.4365 8.66195 26.8988 9.43994 28.2466C11.329 31.5225 14.1027 34.4966 17.7454 35.7715C18.6041 36.0708 19.5018 36.3154 20.3968 36.4689C20.5842 36.5001 20.7637 36.4975 20.9433 36.4819Z" fill="url(#paint38_linear_364_3089)"/>
<path d="M58.6536 34.4397L53.9467 29.7353V23.2096H56.7932L53.9467 20.363V10.8736L58.6536 6.16926H70.6955L75.4025 10.8736V17.3994H72.5559L75.4025 20.2459V29.7353L70.6955 34.4397H58.6536Z" fill="url(#paint39_linear_364_3089)"/>
<path d="M55.8148 11.649L59.4264 8.0375H69.9227L73.5342 11.649V15.5338H66.038V13.8295H63.3111V17.4072H69.9227L73.5342 21.0187V28.9599L69.9227 32.5715H59.4264L55.8148 28.9599V25.0752H63.3137V26.7795H66.0406V23.2018H59.429L55.8174 19.5902V11.649H55.8148Z" fill="white"/>
<path d="M75.3088 34.4397V6.16927H92.0577L96.7647 10.8736V29.7353L92.0577 34.4397H75.3088Z" fill="url(#paint40_linear_364_3089)"/>
<path d="M94.8964 28.9599L91.2849 32.5715H77.1744V8.0349H91.2823L94.8939 11.6464V28.9599H94.8964ZM87.4002 26.7795V13.8295H84.6733V26.7795H87.4002Z" fill="white"/>
<path d="M101.375 34.4397L96.6709 29.7353V23.2096H99.5175L96.6709 20.363V10.8736L101.375 6.16927H113.42L118.127 10.8736V17.3994H115.28L118.127 20.2459V29.7353L113.42 34.4397H101.375Z" fill="url(#paint41_linear_364_3089)"/>
<path d="M98.5366 11.649L102.148 8.0375H112.644L116.256 11.649V15.5338H108.762V13.8295H106.035V17.4072H112.647L116.259 21.0187V28.9599L112.647 32.5715H102.151L98.5366 28.9599V25.0752H106.035V26.7795H108.762V23.2018H102.151L98.5366 19.5876V11.649Z" fill="white"/>
<path d="M118.031 34.4397V6.16927H134.782L139.486 10.8736V18.6587L137.842 20.3032L139.486 21.9502V29.7353L134.782 34.4397H118.031Z" fill="url(#paint42_linear_364_3089)"/>
<path d="M134.007 8.0349L137.618 11.6464V17.8834L135.198 20.3032L137.618 22.723V28.9599L134.007 32.5715H119.899V8.0349H134.007ZM127.395 17.4072H130.122V13.8295H127.395V17.4072ZM127.395 26.7795H130.122V23.2018H127.395V26.7795Z" fill="white"/>
<path d="M146.296 26.5661L142.148 22.4186V6.21612H150.758V19.9129H154.867V6.21612H163.477V34.3928H154.867V26.5661H146.296Z" fill="url(#paint43_linear_364_3089)"/>
<path d="M185 30.2453L180.852 34.3928H164.65V6.21611H180.852L185 10.3636V30.2453ZM176.39 27.7396V12.8693H173.26V27.7396H176.39Z" fill="url(#paint44_linear_364_3089)"/>
</g>
<defs>
<radialGradient id="paint0_radial_364_3089" cx="0" cy="0" r="1" gradientUnits="userSpaceOnUse" gradientTransform="translate(8.87808 2.25174) scale(32.3318 33.5247)">
<stop stop-color="#009245"/>
<stop offset="0.0961" stop-color="#0E8F43"/>
<stop offset="0.2774" stop-color="#33863E"/>
<stop offset="0.5248" stop-color="#6E7836"/>
<stop offset="0.8253" stop-color="#BF662B"/>
<stop offset="1" stop-color="#F15A24"/>
</radialGradient>
<radialGradient id="paint1_radial_364_3089" cx="0" cy="0" r="1" gradientUnits="userSpaceOnUse" gradientTransform="translate(8.87813 2.25175) scale(32.3318 33.5247)">
<stop stop-color="#009245"/>
<stop offset="0.0961" stop-color="#0E8F43"/>
<stop offset="0.2774" stop-color="#33863E"/>
<stop offset="0.5248" stop-color="#6E7836"/>
<stop offset="0.8253" stop-color="#BF662B"/>
<stop offset="1" stop-color="#F15A24"/>
</radialGradient>
<radialGradient id="paint2_radial_364_3089" cx="0" cy="0" r="1" gradientUnits="userSpaceOnUse" gradientTransform="translate(8.87817 2.25172) scale(32.3319 33.5247)">
<stop stop-color="#009245"/>
<stop offset="0.0961" stop-color="#0E8F43"/>
<stop offset="0.2774" stop-color="#33863E"/>
<stop offset="0.5248" stop-color="#6E7836"/>
<stop offset="0.8253" stop-color="#BF662B"/>
<stop offset="1" stop-color="#F15A24"/>
</radialGradient>
<radialGradient id="paint3_radial_364_3089" cx="0" cy="0" r="1" gradientUnits="userSpaceOnUse" gradientTransform="translate(8.87812 2.25168) scale(32.3318 33.5247)">
<stop stop-color="#009245"/>
<stop offset="0.0961" stop-color="#0E8F43"/>
<stop offset="0.2774" stop-color="#33863E"/>
<stop offset="0.5248" stop-color="#6E7836"/>
<stop offset="0.8253" stop-color="#BF662B"/>
<stop offset="1" stop-color="#F15A24"/>
</radialGradient>
<radialGradient id="paint4_radial_364_3089" cx="0" cy="0" r="1" gradientUnits="userSpaceOnUse" gradientTransform="translate(8.87815 2.25172) scale(32.3318 33.5247)">
<stop stop-color="#009245"/>
<stop offset="0.0961" stop-color="#0E8F43"/>
<stop offset="0.2774" stop-color="#33863E"/>
<stop offset="0.5248" stop-color="#6E7836"/>
<stop offset="0.8253" stop-color="#BF662B"/>
<stop offset="1" stop-color="#F15A24"/>
</radialGradient>
<radialGradient id="paint5_radial_364_3089" cx="0" cy="0" r="1" gradientUnits="userSpaceOnUse" gradientTransform="translate(8.87812 2.25173) scale(32.3318 33.5247)">
<stop stop-color="#009245"/>
<stop offset="0.0961" stop-color="#0E8F43"/>
<stop offset="0.2774" stop-color="#33863E"/>
<stop offset="0.5248" stop-color="#6E7836"/>
<stop offset="0.8253" stop-color="#BF662B"/>
<stop offset="1" stop-color="#F15A24"/>
</radialGradient>
<radialGradient id="paint6_radial_364_3089" cx="0" cy="0" r="1" gradientUnits="userSpaceOnUse" gradientTransform="translate(8.87807 2.25174) scale(32.3318 33.5247)">
<stop stop-color="#009245"/>
<stop offset="0.0961" stop-color="#0E8F43"/>
<stop offset="0.2774" stop-color="#33863E"/>
<stop offset="0.5248" stop-color="#6E7836"/>
<stop offset="0.8253" stop-color="#BF662B"/>
<stop offset="1" stop-color="#F15A24"/>
</radialGradient>
<radialGradient id="paint7_radial_364_3089" cx="0" cy="0" r="1" gradientUnits="userSpaceOnUse" gradientTransform="translate(8.87808 2.25173) scale(32.3318 33.5247)">
<stop stop-color="#009245"/>
<stop offset="0.0961" stop-color="#0E8F43"/>
<stop offset="0.2774" stop-color="#33863E"/>
<stop offset="0.5248" stop-color="#6E7836"/>
<stop offset="0.8253" stop-color="#BF662B"/>
<stop offset="1" stop-color="#F15A24"/>
</radialGradient>
<radialGradient id="paint8_radial_364_3089" cx="0" cy="0" r="1" gradientUnits="userSpaceOnUse" gradientTransform="translate(8.87806 2.25173) scale(32.3318 33.5247)">
<stop stop-color="#009245"/>
<stop offset="0.0961" stop-color="#0E8F43"/>
<stop offset="0.2774" stop-color="#33863E"/>
<stop offset="0.5248" stop-color="#6E7836"/>
<stop offset="0.8253" stop-color="#BF662B"/>
<stop offset="1" stop-color="#F15A24"/>
</radialGradient>
<radialGradient id="paint9_radial_364_3089" cx="0" cy="0" r="1" gradientUnits="userSpaceOnUse" gradientTransform="translate(8.87805 2.25172) scale(32.3318 33.5247)">
<stop stop-color="#009245"/>
<stop offset="0.0961" stop-color="#0E8F43"/>
<stop offset="0.2774" stop-color="#33863E"/>
<stop offset="0.5248" stop-color="#6E7836"/>
<stop offset="0.8253" stop-color="#BF662B"/>
<stop offset="1" stop-color="#F15A24"/>
</radialGradient>
<radialGradient id="paint10_radial_364_3089" cx="0" cy="0" r="1" gradientUnits="userSpaceOnUse" gradientTransform="translate(8.87806 2.25172) scale(32.3318 33.5247)">
<stop stop-color="#009245"/>
<stop offset="0.0961" stop-color="#0E8F43"/>
<stop offset="0.2774" stop-color="#33863E"/>
<stop offset="0.5248" stop-color="#6E7836"/>
<stop offset="0.8253" stop-color="#BF662B"/>
<stop offset="1" stop-color="#F15A24"/>
</radialGradient>
<radialGradient id="paint11_radial_364_3089" cx="0" cy="0" r="1" gradientUnits="userSpaceOnUse" gradientTransform="translate(8.87805 2.25174) scale(32.3318 33.5247)">
<stop stop-color="#009245"/>
<stop offset="0.0961" stop-color="#0E8F43"/>
<stop offset="0.2774" stop-color="#33863E"/>
<stop offset="0.5248" stop-color="#6E7836"/>
<stop offset="0.8253" stop-color="#BF662B"/>
<stop offset="1" stop-color="#F15A24"/>
</radialGradient>
<radialGradient id="paint12_radial_364_3089" cx="0" cy="0" r="1" gradientUnits="userSpaceOnUse" gradientTransform="translate(8.87814 2.25174) scale(32.3318 33.5247)">
<stop stop-color="#009245"/>
<stop offset="0.0961" stop-color="#0E8F43"/>
<stop offset="0.2774" stop-color="#33863E"/>
<stop offset="0.5248" stop-color="#6E7836"/>
<stop offset="0.8253" stop-color="#BF662B"/>
<stop offset="1" stop-color="#F15A24"/>
</radialGradient>
<radialGradient id="paint13_radial_364_3089" cx="0" cy="0" r="1" gradientUnits="userSpaceOnUse" gradientTransform="translate(8.87815 2.25175) scale(32.3318 33.5247)">
<stop stop-color="#009245"/>
<stop offset="0.0961" stop-color="#0E8F43"/>
<stop offset="0.2774" stop-color="#33863E"/>
<stop offset="0.5248" stop-color="#6E7836"/>
<stop offset="0.8253" stop-color="#BF662B"/>
<stop offset="1" stop-color="#F15A24"/>
</radialGradient>
<radialGradient id="paint14_radial_364_3089" cx="0" cy="0" r="1" gradientUnits="userSpaceOnUse" gradientTransform="translate(8.8781 2.25172) scale(32.3318 33.5247)">
<stop stop-color="#009245"/>
<stop offset="0.0961" stop-color="#0E8F43"/>
<stop offset="0.2774" stop-color="#33863E"/>
<stop offset="0.5248" stop-color="#6E7836"/>
<stop offset="0.8253" stop-color="#BF662B"/>
<stop offset="1" stop-color="#F15A24"/>
</radialGradient>
<radialGradient id="paint15_radial_364_3089" cx="0" cy="0" r="1" gradientUnits="userSpaceOnUse" gradientTransform="translate(8.87807 2.25173) scale(32.3318 33.5247)">
<stop stop-color="#009245"/>
<stop offset="0.0961" stop-color="#0E8F43"/>
<stop offset="0.2774" stop-color="#33863E"/>
<stop offset="0.5248" stop-color="#6E7836"/>
<stop offset="0.8253" stop-color="#BF662B"/>
<stop offset="1" stop-color="#F15A24"/>
</radialGradient>
<radialGradient id="paint16_radial_364_3089" cx="0" cy="0" r="1" gradientUnits="userSpaceOnUse" gradientTransform="translate(8.87814 2.25173) scale(32.3318 33.5247)">
<stop stop-color="#009245"/>
<stop offset="0.0961" stop-color="#0E8F43"/>
<stop offset="0.2774" stop-color="#33863E"/>
<stop offset="0.5248" stop-color="#6E7836"/>
<stop offset="0.8253" stop-color="#BF662B"/>
<stop offset="1" stop-color="#F15A24"/>
</radialGradient>
<radialGradient id="paint17_radial_364_3089" cx="0" cy="0" r="1" gradientUnits="userSpaceOnUse" gradientTransform="translate(8.87811 2.25172) scale(32.3318 33.5247)">
<stop stop-color="#009245"/>
<stop offset="0.0961" stop-color="#0E8F43"/>
<stop offset="0.2774" stop-color="#33863E"/>
<stop offset="0.5248" stop-color="#6E7836"/>
<stop offset="0.8253" stop-color="#BF662B"/>
<stop offset="1" stop-color="#F15A24"/>
</radialGradient>
<radialGradient id="paint18_radial_364_3089" cx="0" cy="0" r="1" gradientUnits="userSpaceOnUse" gradientTransform="translate(8.87811 2.25174) scale(32.3318 33.5247)">
<stop stop-color="#009245"/>
<stop offset="0.0961" stop-color="#0E8F43"/>
<stop offset="0.2774" stop-color="#33863E"/>
<stop offset="0.5248" stop-color="#6E7836"/>
<stop offset="0.8253" stop-color="#BF662B"/>
<stop offset="1" stop-color="#F15A24"/>
</radialGradient>
<radialGradient id="paint19_radial_364_3089" cx="0" cy="0" r="1" gradientUnits="userSpaceOnUse" gradientTransform="translate(8.87812 2.25173) scale(32.3318 33.5247)">
<stop stop-color="#009245"/>
<stop offset="0.0961" stop-color="#0E8F43"/>
<stop offset="0.2774" stop-color="#33863E"/>
<stop offset="0.5248" stop-color="#6E7836"/>
<stop offset="0.8253" stop-color="#BF662B"/>
<stop offset="1" stop-color="#F15A24"/>
</radialGradient>
<radialGradient id="paint20_radial_364_3089" cx="0" cy="0" r="1" gradientUnits="userSpaceOnUse" gradientTransform="translate(8.87805 2.25172) scale(32.3318 33.5247)">
<stop stop-color="#009245"/>
<stop offset="0.0961" stop-color="#0E8F43"/>
<stop offset="0.2774" stop-color="#33863E"/>
<stop offset="0.5248" stop-color="#6E7836"/>
<stop offset="0.8253" stop-color="#BF662B"/>
<stop offset="1" stop-color="#F15A24"/>
</radialGradient>
<radialGradient id="paint21_radial_364_3089" cx="0" cy="0" r="1" gradientUnits="userSpaceOnUse" gradientTransform="translate(8.87816 2.25174) scale(32.3318 33.5247)">
<stop stop-color="#009245"/>
<stop offset="0.0961" stop-color="#0E8F43"/>
<stop offset="0.2774" stop-color="#33863E"/>
<stop offset="0.5248" stop-color="#6E7836"/>
<stop offset="0.8253" stop-color="#BF662B"/>
<stop offset="1" stop-color="#F15A24"/>
</radialGradient>
<radialGradient id="paint22_radial_364_3089" cx="0" cy="0" r="1" gradientUnits="userSpaceOnUse" gradientTransform="translate(8.87807 2.25174) scale(32.3318 33.5247)">
<stop stop-color="#009245"/>
<stop offset="0.0961" stop-color="#0E8F43"/>
<stop offset="0.2774" stop-color="#33863E"/>
<stop offset="0.5248" stop-color="#6E7836"/>
<stop offset="0.8253" stop-color="#BF662B"/>
<stop offset="1" stop-color="#F15A24"/>
</radialGradient>
<radialGradient id="paint23_radial_364_3089" cx="0" cy="0" r="1" gradientUnits="userSpaceOnUse" gradientTransform="translate(8.87813 2.25174) scale(32.3318 33.5247)">
<stop stop-color="#009245"/>
<stop offset="0.0961" stop-color="#0E8F43"/>
<stop offset="0.2774" stop-color="#33863E"/>
<stop offset="0.5248" stop-color="#6E7836"/>
<stop offset="0.8253" stop-color="#BF662B"/>
<stop offset="1" stop-color="#F15A24"/>
</radialGradient>
<radialGradient id="paint24_radial_364_3089" cx="0" cy="0" r="1" gradientUnits="userSpaceOnUse" gradientTransform="translate(8.87807 2.25174) scale(32.3318 33.5247)">
<stop stop-color="#009245"/>
<stop offset="0.0961" stop-color="#0E8F43"/>
<stop offset="0.2774" stop-color="#33863E"/>
<stop offset="0.5248" stop-color="#6E7836"/>
<stop offset="0.8253" stop-color="#BF662B"/>
<stop offset="1" stop-color="#F15A24"/>
</radialGradient>
<radialGradient id="paint25_radial_364_3089" cx="0" cy="0" r="1" gradientUnits="userSpaceOnUse" gradientTransform="translate(8.87812 2.25173) scale(32.3318 33.5247)">
<stop stop-color="#009245"/>
<stop offset="0.0961" stop-color="#0E8F43"/>
<stop offset="0.2774" stop-color="#33863E"/>
<stop offset="0.5248" stop-color="#6E7836"/>
<stop offset="0.8253" stop-color="#BF662B"/>
<stop offset="1" stop-color="#F15A24"/>
</radialGradient>
<radialGradient id="paint26_radial_364_3089" cx="0" cy="0" r="1" gradientUnits="userSpaceOnUse" gradientTransform="translate(8.87806 2.25174) scale(32.3318 33.5247)">
<stop stop-color="#009245"/>
<stop offset="0.0961" stop-color="#0E8F43"/>
<stop offset="0.2774" stop-color="#33863E"/>
<stop offset="0.5248" stop-color="#6E7836"/>
<stop offset="0.8253" stop-color="#BF662B"/>
<stop offset="1" stop-color="#F15A24"/>
</radialGradient>
<radialGradient id="paint27_radial_364_3089" cx="0" cy="0" r="1" gradientUnits="userSpaceOnUse" gradientTransform="translate(8.87814 2.25174) scale(32.3318 33.5247)">
<stop stop-color="#009245"/>
<stop offset="0.0961" stop-color="#0E8F43"/>
<stop offset="0.2774" stop-color="#33863E"/>
<stop offset="0.5248" stop-color="#6E7836"/>
<stop offset="0.8253" stop-color="#BF662B"/>
<stop offset="1" stop-color="#F15A24"/>
</radialGradient>
<radialGradient id="paint28_radial_364_3089" cx="0" cy="0" r="1" gradientUnits="userSpaceOnUse" gradientTransform="translate(8.87815 2.25173) scale(32.3318 33.5247)">
<stop stop-color="#009245"/>
<stop offset="0.0961" stop-color="#0E8F43"/>
<stop offset="0.2774" stop-color="#33863E"/>
<stop offset="0.5248" stop-color="#6E7836"/>
<stop offset="0.8253" stop-color="#BF662B"/>
<stop offset="1" stop-color="#F15A24"/>
</radialGradient>
<radialGradient id="paint29_radial_364_3089" cx="0" cy="0" r="1" gradientUnits="userSpaceOnUse" gradientTransform="translate(8.8781 2.25174) scale(32.3318 33.5247)">
<stop stop-color="#009245"/>
<stop offset="0.0961" stop-color="#0E8F43"/>
<stop offset="0.2774" stop-color="#33863E"/>
<stop offset="0.5248" stop-color="#6E7836"/>
<stop offset="0.8253" stop-color="#BF662B"/>
<stop offset="1" stop-color="#F15A24"/>
</radialGradient>
<radialGradient id="paint30_radial_364_3089" cx="0" cy="0" r="1" gradientUnits="userSpaceOnUse" gradientTransform="translate(8.87808 2.25174) scale(32.3318 33.5247)">
<stop stop-color="#009245"/>
<stop offset="0.0961" stop-color="#0E8F43"/>
<stop offset="0.2774" stop-color="#33863E"/>
<stop offset="0.5248" stop-color="#6E7836"/>
<stop offset="0.8253" stop-color="#BF662B"/>
<stop offset="1" stop-color="#F15A24"/>
</radialGradient>
<radialGradient id="paint31_radial_364_3089" cx="0" cy="0" r="1" gradientUnits="userSpaceOnUse" gradientTransform="translate(8.87807 2.25174) scale(32.3318 33.5247)">
<stop stop-color="#009245"/>
<stop offset="0.0961" stop-color="#0E8F43"/>
<stop offset="0.2774" stop-color="#33863E"/>
<stop offset="0.5248" stop-color="#6E7836"/>
<stop offset="0.8253" stop-color="#BF662B"/>
<stop offset="1" stop-color="#F15A24"/>
</radialGradient>
<radialGradient id="paint32_radial_364_3089" cx="0" cy="0" r="1" gradientUnits="userSpaceOnUse" gradientTransform="translate(8.87807 2.25171) scale(32.3318 33.5247)">
<stop stop-color="#009245"/>
<stop offset="0.0961" stop-color="#0E8F43"/>
<stop offset="0.2774" stop-color="#33863E"/>
<stop offset="0.5248" stop-color="#6E7836"/>
<stop offset="0.8253" stop-color="#BF662B"/>
<stop offset="1" stop-color="#F15A24"/>
</radialGradient>
<radialGradient id="paint33_radial_364_3089" cx="0" cy="0" r="1" gradientUnits="userSpaceOnUse" gradientTransform="translate(8.87803 2.25173) scale(32.3318 33.5247)">
<stop stop-color="#009245"/>
<stop offset="0.0961" stop-color="#0E8F43"/>
<stop offset="0.2774" stop-color="#33863E"/>
<stop offset="0.5248" stop-color="#6E7836"/>
<stop offset="0.8253" stop-color="#BF662B"/>
<stop offset="1" stop-color="#F15A24"/>
</radialGradient>
<radialGradient id="paint34_radial_364_3089" cx="0" cy="0" r="1" gradientUnits="userSpaceOnUse" gradientTransform="translate(8.87804 2.25172) scale(32.3318 33.5247)">
<stop stop-color="#009245"/>
<stop offset="0.0961" stop-color="#0E8F43"/>
<stop offset="0.2774" stop-color="#33863E"/>
<stop offset="0.5248" stop-color="#6E7836"/>
<stop offset="0.8253" stop-color="#BF662B"/>
<stop offset="1" stop-color="#F15A24"/>
</radialGradient>
<radialGradient id="paint35_radial_364_3089" cx="0" cy="0" r="1" gradientUnits="userSpaceOnUse" gradientTransform="translate(8.87811 2.25174) scale(32.3318 33.5247)">
<stop stop-color="#009245"/>
<stop offset="0.0961" stop-color="#0E8F43"/>
<stop offset="0.2774" stop-color="#33863E"/>
<stop offset="0.5248" stop-color="#6E7836"/>
<stop offset="0.8253" stop-color="#BF662B"/>
<stop offset="1" stop-color="#F15A24"/>
</radialGradient>
<radialGradient id="paint36_radial_364_3089" cx="0" cy="0" r="1" gradientUnits="userSpaceOnUse" gradientTransform="translate(8.87806 2.25172) scale(32.3318 33.5247)">
<stop stop-color="#009245"/>
<stop offset="0.0961" stop-color="#0E8F43"/>
<stop offset="0.2774" stop-color="#33863E"/>
<stop offset="0.5248" stop-color="#6E7836"/>
<stop offset="0.8253" stop-color="#BF662B"/>
<stop offset="1" stop-color="#F15A24"/>
</radialGradient>
<linearGradient id="paint37_linear_364_3089" x1="39.6448" y1="-16.3704" x2="39.6448" y2="35.4758" gradientUnits="userSpaceOnUse">
<stop offset="0.484375" stop-color="#00A86B"/>
<stop offset="1" stop-color="#004029"/>
</linearGradient>
<linearGradient id="paint38_linear_364_3089" x1="10.4715" y1="-16.3707" x2="10.4715" y2="35.4755" gradientUnits="userSpaceOnUse">
<stop offset="0.484375" stop-color="#00A86B"/>
<stop offset="1" stop-color="#004029"/>
</linearGradient>
<linearGradient id="paint39_linear_364_3089" x1="64.6744" y1="-5.22646" x2="64.6744" y2="30.8662" gradientUnits="userSpaceOnUse">
<stop offset="0.484375" stop-color="#00A86B"/>
<stop offset="1" stop-color="#004029"/>
</linearGradient>
<linearGradient id="paint40_linear_364_3089" x1="86.0366" y1="-5.22645" x2="86.0366" y2="30.8663" gradientUnits="userSpaceOnUse">
<stop offset="0.484375" stop-color="#00A86B"/>
<stop offset="1" stop-color="#004029"/>
</linearGradient>
<linearGradient id="paint41_linear_364_3089" x1="107.399" y1="-5.22645" x2="107.399" y2="30.8663" gradientUnits="userSpaceOnUse">
<stop offset="0.484375" stop-color="#00A86B"/>
<stop offset="1" stop-color="#004029"/>
</linearGradient>
<linearGradient id="paint42_linear_364_3089" x1="128.758" y1="-5.22645" x2="128.758" y2="30.8663" gradientUnits="userSpaceOnUse">
<stop offset="0.484375" stop-color="#00A86B"/>
<stop offset="1" stop-color="#004029"/>
</linearGradient>
<linearGradient id="paint43_linear_364_3089" x1="152.812" y1="-5.14184" x2="152.812" y2="30.8313" gradientUnits="userSpaceOnUse">
<stop offset="0.484375" stop-color="#00A86B"/>
<stop offset="1" stop-color="#004029"/>
</linearGradient>
<linearGradient id="paint44_linear_364_3089" x1="174.825" y1="-5.14185" x2="174.825" y2="30.8313" gradientUnits="userSpaceOnUse">
<stop offset="0.484375" stop-color="#00A86B"/>
<stop offset="1" stop-color="#004029"/>
</linearGradient>
<clipPath id="clip0_364_3089">
<rect width="185" height="40.6089" fill="white"/>
</clipPath>
</defs>
</svg>
